<mxfile host="app.diagrams.net" modified="2023-04-05T10:11:29.063Z" agent="5.0 (Windows NT 10.0; Win64; x64) AppleWebKit/537.36 (KHTML, like Gecko) Chrome/111.0.0.0 Safari/537.36" etag="MJpHmj6biKK-Jz8wO567" version="20.2.4" type="github">
  <diagram id="Z5wUyZYE_nOQRbvdjFhS" name="第 1 页">
    <mxGraphModel dx="1343" dy="834" grid="1" gridSize="10" guides="1" tooltips="1" connect="1" arrows="1" fold="1" page="1" pageScale="1" pageWidth="827" pageHeight="1169" math="0" shadow="0">
      <root>
        <mxCell id="0" />
        <mxCell id="1" parent="0" />
        <mxCell id="8jTFb-6yWXIkbNjpbF5--13" value="" style="rounded=1;whiteSpace=wrap;html=1;fontSize=16;shadow=0;glass=0;strokeColor=#82B366;dashed=1;" parent="1" vertex="1">
          <mxGeometry x="339" y="453" width="150" height="80" as="geometry" />
        </mxCell>
        <mxCell id="8jTFb-6yWXIkbNjpbF5--11" value="" style="rounded=1;whiteSpace=wrap;html=1;fontSize=16;shadow=0;glass=0;strokeColor=#82B366;dashed=1;" parent="1" vertex="1">
          <mxGeometry x="340" y="301" width="150" height="140" as="geometry" />
        </mxCell>
        <mxCell id="8jTFb-6yWXIkbNjpbF5--14" style="edgeStyle=orthogonalEdgeStyle;rounded=0;orthogonalLoop=1;jettySize=auto;html=1;exitX=0;exitY=0.5;exitDx=0;exitDy=0;entryX=0;entryY=0.25;entryDx=0;entryDy=0;fontSize=16;" parent="1" source="8jTFb-6yWXIkbNjpbF5--1" target="8jTFb-6yWXIkbNjpbF5--2" edge="1">
          <mxGeometry relative="1" as="geometry">
            <Array as="points">
              <mxPoint x="320" y="190" />
              <mxPoint x="320" y="245" />
            </Array>
          </mxGeometry>
        </mxCell>
        <mxCell id="8jTFb-6yWXIkbNjpbF5--26" style="edgeStyle=orthogonalEdgeStyle;rounded=0;orthogonalLoop=1;jettySize=auto;html=1;exitX=1;exitY=0.5;exitDx=0;exitDy=0;entryX=1;entryY=0.25;entryDx=0;entryDy=0;fontSize=12;" parent="1" source="8jTFb-6yWXIkbNjpbF5--1" target="8jTFb-6yWXIkbNjpbF5--8" edge="1">
          <mxGeometry relative="1" as="geometry">
            <Array as="points">
              <mxPoint x="500" y="190" />
              <mxPoint x="500" y="555" />
            </Array>
          </mxGeometry>
        </mxCell>
        <mxCell id="8jTFb-6yWXIkbNjpbF5--1" value="ELF Header" style="rounded=1;whiteSpace=wrap;html=1;fillColor=#dae8fc;strokeColor=#6c8ebf;" parent="1" vertex="1">
          <mxGeometry x="354" y="160" width="120" height="60" as="geometry" />
        </mxCell>
        <mxCell id="8jTFb-6yWXIkbNjpbF5--20" style="edgeStyle=orthogonalEdgeStyle;rounded=0;orthogonalLoop=1;jettySize=auto;html=1;entryX=0;entryY=0.5;entryDx=0;entryDy=0;fontSize=16;exitX=0;exitY=0.5;exitDx=0;exitDy=0;strokeColor=#82B366;" parent="1" source="8jTFb-6yWXIkbNjpbF5--2" target="8jTFb-6yWXIkbNjpbF5--11" edge="1">
          <mxGeometry relative="1" as="geometry">
            <Array as="points">
              <mxPoint x="320" y="260" />
              <mxPoint x="320" y="371" />
            </Array>
          </mxGeometry>
        </mxCell>
        <mxCell id="8jTFb-6yWXIkbNjpbF5--24" style="edgeStyle=orthogonalEdgeStyle;rounded=0;orthogonalLoop=1;jettySize=auto;html=1;exitX=0;exitY=0.5;exitDx=0;exitDy=0;entryX=0;entryY=0.5;entryDx=0;entryDy=0;fontSize=12;strokeColor=#82B366;" parent="1" source="8jTFb-6yWXIkbNjpbF5--2" target="8jTFb-6yWXIkbNjpbF5--13" edge="1">
          <mxGeometry relative="1" as="geometry">
            <Array as="points">
              <mxPoint x="320" y="260" />
              <mxPoint x="320" y="493" />
            </Array>
          </mxGeometry>
        </mxCell>
        <mxCell id="8jTFb-6yWXIkbNjpbF5--2" value="Program Header" style="rounded=1;whiteSpace=wrap;html=1;fillColor=#d5e8d4;strokeColor=#82b366;" parent="1" vertex="1">
          <mxGeometry x="354" y="230" width="120" height="60" as="geometry" />
        </mxCell>
        <mxCell id="8jTFb-6yWXIkbNjpbF5--4" value=".rodata" style="rounded=0;whiteSpace=wrap;html=1;" parent="1" vertex="1">
          <mxGeometry x="354" y="464" width="120" height="60" as="geometry" />
        </mxCell>
        <mxCell id="8jTFb-6yWXIkbNjpbF5--6" value=".data" style="rounded=0;whiteSpace=wrap;html=1;" parent="1" vertex="1">
          <mxGeometry x="354" y="376" width="120" height="60" as="geometry" />
        </mxCell>
        <mxCell id="8jTFb-6yWXIkbNjpbF5--7" value=".text" style="rounded=0;whiteSpace=wrap;html=1;" parent="1" vertex="1">
          <mxGeometry x="354" y="306" width="120" height="60" as="geometry" />
        </mxCell>
        <mxCell id="8jTFb-6yWXIkbNjpbF5--27" style="edgeStyle=orthogonalEdgeStyle;rounded=0;orthogonalLoop=1;jettySize=auto;html=1;exitX=1;exitY=0.5;exitDx=0;exitDy=0;entryX=1;entryY=0.5;entryDx=0;entryDy=0;fontSize=12;strokeColor=#9673a6;dashed=1;fillColor=#e1d5e7;" parent="1" source="8jTFb-6yWXIkbNjpbF5--8" target="8jTFb-6yWXIkbNjpbF5--4" edge="1">
          <mxGeometry relative="1" as="geometry">
            <Array as="points">
              <mxPoint x="510" y="570" />
              <mxPoint x="510" y="494" />
            </Array>
          </mxGeometry>
        </mxCell>
        <mxCell id="8jTFb-6yWXIkbNjpbF5--28" style="edgeStyle=orthogonalEdgeStyle;rounded=0;orthogonalLoop=1;jettySize=auto;html=1;exitX=1;exitY=0.5;exitDx=0;exitDy=0;entryX=1;entryY=0.5;entryDx=0;entryDy=0;fontSize=12;strokeColor=#9673a6;dashed=1;fillColor=#e1d5e7;" parent="1" source="8jTFb-6yWXIkbNjpbF5--8" target="8jTFb-6yWXIkbNjpbF5--6" edge="1">
          <mxGeometry relative="1" as="geometry">
            <Array as="points">
              <mxPoint x="510" y="570" />
              <mxPoint x="510" y="406" />
            </Array>
          </mxGeometry>
        </mxCell>
        <mxCell id="8jTFb-6yWXIkbNjpbF5--29" style="edgeStyle=orthogonalEdgeStyle;rounded=0;orthogonalLoop=1;jettySize=auto;html=1;exitX=1;exitY=0.5;exitDx=0;exitDy=0;entryX=1;entryY=0.5;entryDx=0;entryDy=0;fontSize=12;strokeColor=#9673a6;dashed=1;fillColor=#e1d5e7;" parent="1" source="8jTFb-6yWXIkbNjpbF5--8" target="8jTFb-6yWXIkbNjpbF5--7" edge="1">
          <mxGeometry relative="1" as="geometry">
            <Array as="points">
              <mxPoint x="510" y="570" />
              <mxPoint x="510" y="336" />
            </Array>
          </mxGeometry>
        </mxCell>
        <mxCell id="8jTFb-6yWXIkbNjpbF5--8" value="Section Header" style="rounded=1;whiteSpace=wrap;html=1;fillColor=#e1d5e7;strokeColor=#9673a6;" parent="1" vertex="1">
          <mxGeometry x="354" y="540" width="120" height="60" as="geometry" />
        </mxCell>
        <mxCell id="8jTFb-6yWXIkbNjpbF5--9" value="&lt;b&gt;&lt;font style=&quot;font-size: 16px;&quot;&gt;...&lt;/font&gt;&lt;/b&gt;" style="text;html=1;align=center;verticalAlign=middle;resizable=0;points=[];autosize=1;strokeColor=none;fillColor=none;" parent="1" vertex="1">
          <mxGeometry x="391" y="429" width="40" height="30" as="geometry" />
        </mxCell>
        <mxCell id="8jTFb-6yWXIkbNjpbF5--23" value="&lt;font color=&quot;#82b366&quot;&gt;Segment&lt;/font&gt;" style="text;html=1;align=center;verticalAlign=middle;resizable=0;points=[];autosize=1;strokeColor=none;fillColor=none;fontSize=12;" parent="1" vertex="1">
          <mxGeometry x="252" y="355" width="70" height="30" as="geometry" />
        </mxCell>
        <mxCell id="8jTFb-6yWXIkbNjpbF5--25" value="&lt;font color=&quot;#82b366&quot;&gt;Segment&lt;/font&gt;" style="text;html=1;align=center;verticalAlign=middle;resizable=0;points=[];autosize=1;strokeColor=none;fillColor=none;fontSize=12;" parent="1" vertex="1">
          <mxGeometry x="252" y="475" width="70" height="30" as="geometry" />
        </mxCell>
        <mxCell id="8jTFb-6yWXIkbNjpbF5--30" value="&lt;font color=&quot;#9673a6&quot;&gt;Section&lt;/font&gt;" style="text;html=1;align=center;verticalAlign=middle;resizable=0;points=[];autosize=1;strokeColor=none;fillColor=none;fontSize=12;fontColor=#82B366;" parent="1" vertex="1">
          <mxGeometry x="510" y="317" width="60" height="30" as="geometry" />
        </mxCell>
        <mxCell id="8jTFb-6yWXIkbNjpbF5--31" value="&lt;font color=&quot;#9673a6&quot;&gt;Section&lt;/font&gt;" style="text;html=1;align=center;verticalAlign=middle;resizable=0;points=[];autosize=1;strokeColor=none;fillColor=none;fontSize=12;fontColor=#82B366;" parent="1" vertex="1">
          <mxGeometry x="510" y="387" width="60" height="30" as="geometry" />
        </mxCell>
        <mxCell id="8jTFb-6yWXIkbNjpbF5--32" value="&lt;font color=&quot;#9673a6&quot;&gt;Section&lt;/font&gt;" style="text;html=1;align=center;verticalAlign=middle;resizable=0;points=[];autosize=1;strokeColor=none;fillColor=none;fontSize=12;fontColor=#82B366;" parent="1" vertex="1">
          <mxGeometry x="510" y="475" width="60" height="30" as="geometry" />
        </mxCell>
      </root>
    </mxGraphModel>
  </diagram>
</mxfile>
